<svg xmlns="http://www.w3.org/2000/svg" width="2443" height="2500" preserveAspectRatio="xMidYMid" viewBox="0 0 256 262" id="google"><path fill="#4285F4" d="M255.878 133.451c0-10.734-.871-18.567-2.756-26.69H130.55v48.448h71.947c-1.45 12.04-9.283 30.172-26.69 42.356l-.244 1.622 38.755 30.023 2.685.268c24.659-22.774 38.875-56.282 38.875-96.027"></path><path fill="#34A853" d="M130.55 261.1c35.248 0 64.839-11.605 86.453-31.622l-41.196-31.913c-11.024 7.688-25.82 13.055-45.257 13.055-34.523 0-63.824-22.773-74.269-54.25l-1.531.13-40.298 31.187-.527 1.465C35.393 231.798 79.49 261.1 130.55 261.1"></path><path fill="#FBBC05" d="M56.281 156.37c-2.756-8.123-4.351-16.827-4.351-25.82 0-8.994 1.595-17.697 4.206-25.82l-.073-1.73L15.26 71.312l-1.335.635C5.077 89.644 0 109.517 0 130.55s5.077 40.905 13.925 58.602l42.356-32.782"></path><path fill="#EB4335" d="M130.55 50.479c24.514 0 41.05 10.589 50.479 19.438l36.844-35.974C195.245 12.91 165.798 0 130.55 0 79.49 0 35.393 29.301 13.925 71.947l42.211 32.783c10.59-31.477 39.891-54.251 74.414-54.251"></path></svg>


<svg xmlns="http://www.w3.org/2000/svg" viewBox="0 0 512 512" id="google"><path fill="#fbbb00" d="M113.47 309.408 95.648 375.94l-65.139 1.378C11.042 341.211 0 299.9 0 256c0-42.451 10.324-82.483 28.624-117.732h.014L86.63 148.9l25.404 57.644c-5.317 15.501-8.215 32.141-8.215 49.456.002 18.792 3.406 36.797 9.651 53.408z"></path><path fill="#518ef8" d="M507.527 208.176C510.467 223.662 512 239.655 512 256c0 18.328-1.927 36.206-5.598 53.451-12.462 58.683-45.025 109.925-90.134 146.187l-.014-.014-73.044-3.727-10.338-64.535c29.932-17.554 53.324-45.025 65.646-77.911h-136.89V208.176h245.899z"></path><path fill="#28b446" d="m416.253 455.624.014.014C372.396 490.901 316.666 512 256 512c-97.491 0-182.252-54.491-225.491-134.681l82.961-67.91c21.619 57.698 77.278 98.771 142.53 98.771 28.047 0 54.323-7.582 76.87-20.818l83.383 68.262z"></path><path fill="#f14336" d="m419.404 58.936-82.933 67.896C313.136 112.246 285.552 103.82 256 103.82c-66.729 0-123.429 42.957-143.965 102.724l-83.397-68.276h-.014C71.23 56.123 157.06 0 256 0c62.115 0 119.068 22.126 163.404 58.936z"></path></svg>