<svg width="45" height="22" viewBox="0 0 45 22" fill="none" xmlns="http://www.w3.org/2000/svg">
<path d="M10.91 21.48C18.83 21.48 21.65 16.35 21.65 11.04C21.65 5.82 18.83 0.539999 10.91 0.539999C3.05 0.539999 0.2 5.79 0.2 11.04C0.2 16.38 3.05 21.48 10.91 21.48ZM5.72 11.04C5.72 7.08 6.8 4.86 10.91 4.86C15.08 4.86 16.13 7.08 16.13 11.04C16.13 14.94 15.08 17.19 10.91 17.19C6.8 17.19 5.72 14.94 5.72 11.04ZM43.7361 16.29C43.7361 13.35 41.9961 12.3 39.9261 11.85C42.4161 11.34 44.2461 9.42 44.2461 6.57C44.2461 3.36 42.0561 1.05 37.5561 1.05H26.5161V21H31.8561V13.77H35.4861C37.1961 13.77 38.4261 14.67 38.4261 16.59V17.4C38.4261 19.05 38.5461 20.19 38.7861 21H44.1261C43.9161 19.86 43.7361 19.02 43.7361 17.4V16.29ZM36.1461 9.99H31.8561V5.1H36.1761C37.9461 5.1 38.7261 5.88 38.7261 7.44C38.7261 9.15 37.9761 9.99 36.1461 9.99Z" fill="#838383"/>
</svg>
